<?xml version="1.0" encoding="UTF-8" standalone="no"?>
<svg
   xmlns:dc="http://purl.org/dc/elements/1.1/"
   xmlns:cc="http://creativecommons.org/ns#"
   xmlns:rdf="http://www.w3.org/1999/02/22-rdf-syntax-ns#"
   xmlns:svg="http://www.w3.org/2000/svg"
   xmlns="http://www.w3.org/2000/svg"
   xmlns:sodipodi="http://sodipodi.sourceforge.net/DTD/sodipodi-0.dtd"
   xmlns:inkscape="http://www.inkscape.org/namespaces/inkscape"
   inkscape:version="1.0beta2 (654b821, 2020-03-27)"
   sodipodi:docname="add-text.svg"
   id="svg1596"
   viewBox="0 0 24 24"
   version="1.1"
   height="24"
   width="24">
  <metadata
     id="metadata1600">
    <rdf:RDF>
      <cc:Work
         rdf:about="">
        <dc:format>image/svg+xml</dc:format>
        <dc:type
           rdf:resource="http://purl.org/dc/dcmitype/StillImage" />
        <dc:title></dc:title>
      </cc:Work>
    </rdf:RDF>
  </metadata>
  <sodipodi:namedview
     inkscape:current-layer="svg1596"
     inkscape:window-maximized="0"
     inkscape:window-y="30"
     inkscape:window-x="103"
     inkscape:cy="14.551053"
     inkscape:cx="12.971425"
     inkscape:zoom="19.666667"
     inkscape:showpageshadow="false"
     inkscape:pagecheckerboard="true"
     showgrid="false"
     id="namedview1598"
     inkscape:window-height="973"
     inkscape:window-width="1663"
     inkscape:pageshadow="2"
     inkscape:pageopacity="0"
     guidetolerance="10"
     gridtolerance="10"
     objecttolerance="10"
     borderopacity="1"
     bordercolor="#666666"
     pagecolor="#ffffff" />
  <defs
     id="defs1590">
    <style
       id="style1588">.cls-1{fill:#fff;}</style>
    <style
       id="style45095">.cls-1{fill:none;stroke:#000;stroke-linecap:square;stroke-miterlimit:10;stroke-width:16px;}</style>
    <style
       id="style45131">.cls-1{fill:none;stroke:#000;stroke-linecap:square;stroke-miterlimit:10;stroke-width:16px;}</style>
  </defs>
  <path
     id="path1592"
     style="font-feature-settings:normal;font-variant-alternates:normal;font-variant-caps:normal;font-variant-ligatures:normal;font-variant-numeric:normal;font-variant-position:normal;isolation:auto;mix-blend-mode:normal;paint-order:normal;shape-padding:0;text-decoration-color:#000000;text-decoration-line:none;text-decoration-style:solid;text-indent:0;text-orientation:mixed;text-transform:none;white-space:normal"
     solid-color="#000000"
     shape-rendering="auto"
     image-rendering="auto"
     fill="#fff"
     dominant-baseline="auto"
     color-rendering="auto"
     color="#000000"
     d="m1.5137 0.99985c-0.81746 0-1.5137 0.69621-1.5137 1.5137v18.971c0 0.81745 0.69621 1.5156 1.5137 1.5156h20.973c0.81746 0 1.5137-0.69817 1.5137-1.5156v-18.971c0-0.81746-0.69621-1.5137-1.5137-1.5137zm0.48633 1.9998h20v18h-20z" />
  <g
     transform="matrix(0.78342106,0,0,0.6183578,3.5325225,-170.51968)"
     id="g8646"
     style="stroke-width:1.43676" />
  <g
     transform="matrix(0.78342106,0,0,0.6183578,3.5325225,-170.51968)"
     id="g8648"
     style="stroke-width:1.43676" />
  <g
     transform="matrix(0.78342106,0,0,0.6183578,3.5325225,-170.51968)"
     id="g8650"
     style="stroke-width:1.43676" />
  <g
     transform="matrix(0.78342106,0,0,0.6183578,3.5325225,-170.51968)"
     id="g8652"
     style="stroke-width:1.43676" />
  <g
     transform="matrix(0.78342106,0,0,0.6183578,3.5325225,-170.51968)"
     id="g8654"
     style="stroke-width:1.43676" />
  <g
     transform="matrix(0.78342106,0,0,0.6183578,3.5325225,-170.51968)"
     id="g8656"
     style="stroke-width:1.43676" />
  <g
     transform="matrix(0.78342106,0,0,0.6183578,3.5325225,-170.51968)"
     id="g8658"
     style="stroke-width:1.43676" />
  <g
     transform="matrix(0.78342106,0,0,0.6183578,3.5325225,-170.51968)"
     id="g8660"
     style="stroke-width:1.43676" />
  <g
     transform="matrix(0.78342106,0,0,0.6183578,3.5325225,-170.51968)"
     id="g8662"
     style="stroke-width:1.43676" />
  <g
     transform="matrix(0.78342106,0,0,0.6183578,3.5325225,-170.51968)"
     id="g8664"
     style="stroke-width:1.43676" />
  <g
     transform="matrix(0.78342106,0,0,0.6183578,3.5325225,-170.51968)"
     id="g8666"
     style="stroke-width:1.43676" />
  <g
     transform="matrix(0.78342106,0,0,0.6183578,3.5325225,-170.51968)"
     id="g8668"
     style="stroke-width:1.43676" />
  <g
     transform="matrix(0.78342106,0,0,0.6183578,3.5325225,-170.51968)"
     id="g8670"
     style="stroke-width:1.43676" />
  <g
     transform="matrix(0.78342106,0,0,0.6183578,3.5325225,-170.51968)"
     id="g8672"
     style="stroke-width:1.43676" />
  <g
     transform="matrix(0.78342106,0,0,0.6183578,3.5325225,-170.51968)"
     id="g8674"
     style="stroke-width:1.43676" />
  <g
     transform="matrix(0.02405268,0,0,0.01898489,3.5325306,2.4854654)"
     id="g13170"
     style="stroke-width:26.272" />
  <g
     transform="matrix(0.02405268,0,0,0.01898489,3.5325306,2.4854654)"
     id="g13172"
     style="stroke-width:26.272" />
  <g
     transform="matrix(0.02405268,0,0,0.01898489,3.5325306,2.4854654)"
     id="g13174"
     style="stroke-width:26.272" />
  <g
     transform="matrix(0.02405268,0,0,0.01898489,3.5325306,2.4854654)"
     id="g13176"
     style="stroke-width:26.272" />
  <g
     transform="matrix(0.02405268,0,0,0.01898489,3.5325306,2.4854654)"
     id="g13178"
     style="stroke-width:26.272" />
  <g
     transform="matrix(0.02405268,0,0,0.01898489,3.5325306,2.4854654)"
     id="g13180"
     style="stroke-width:26.272" />
  <g
     transform="matrix(0.02405268,0,0,0.01898489,3.5325306,2.4854654)"
     id="g13182"
     style="stroke-width:26.272" />
  <g
     transform="matrix(0.02405268,0,0,0.01898489,3.5325306,2.4854654)"
     id="g13184"
     style="stroke-width:26.272" />
  <g
     transform="matrix(0.02405268,0,0,0.01898489,3.5325306,2.4854654)"
     id="g13186"
     style="stroke-width:26.272" />
  <g
     transform="matrix(0.02405268,0,0,0.01898489,3.5325306,2.4854654)"
     id="g13188"
     style="stroke-width:26.272" />
  <g
     transform="matrix(0.02405268,0,0,0.01898489,3.5325306,2.4854654)"
     id="g13190"
     style="stroke-width:26.272" />
  <g
     transform="matrix(0.02405268,0,0,0.01898489,3.5325306,2.4854654)"
     id="g13192"
     style="stroke-width:26.272" />
  <g
     transform="matrix(0.02405268,0,0,0.01898489,3.5325306,2.4854654)"
     id="g13194"
     style="stroke-width:26.272" />
  <g
     transform="matrix(0.02405268,0,0,0.01898489,3.5325306,2.4854654)"
     id="g13196"
     style="stroke-width:26.272" />
  <g
     transform="matrix(0.02405268,0,0,0.01898489,3.5325306,2.4854654)"
     id="g13198"
     style="stroke-width:26.272" />
  <rect
     transform="rotate(90)"
     y="-12.900001"
     x="7.0999994"
     height="1.800001"
     width="9.8000011"
     id="rect26981-7-1"
     style="fill:#ffffff;fill-opacity:1;stroke:#ffffff;stroke-width:0.199999;stroke-linecap:butt;stroke-linejoin:miter;stroke-miterlimit:4;stroke-dasharray:none;stroke-dashoffset:7.4;stroke-opacity:1;paint-order:normal" />
  <rect
     transform="scale(1,-1)"
     y="-7.9111571"
     x="6.1125579"
     height="1.8223149"
     width="11.774884"
     id="rect26981-7-1-3"
     style="fill:#ffffff;fill-opacity:1;stroke:#ffffff;stroke-width:0.199999;stroke-linecap:butt;stroke-linejoin:miter;stroke-miterlimit:4;stroke-dasharray:none;stroke-dashoffset:7.4;stroke-opacity:1;paint-order:normal" />
  <rect
     transform="scale(1,-1)"
     y="-17.9"
     x="9.1000004"
     height="1.8"
     width="5.8000002"
     id="rect26981-7-1-3-8"
     style="fill:#ffffff;fill-opacity:1;stroke:#ffffff;stroke-width:0.2;stroke-linecap:butt;stroke-linejoin:miter;stroke-miterlimit:4;stroke-dasharray:none;stroke-dashoffset:7.4;stroke-opacity:1;paint-order:normal" />
  <rect
     transform="matrix(0,-1,-1,0,0,0)"
     y="-7.8874416"
     x="-8.9111576"
     height="1.774884"
     width="1.8223149"
     id="rect26981-7-1-0"
     style="fill:#ffffff;fill-opacity:1;stroke:#ffffff;stroke-width:0.199999;stroke-linecap:butt;stroke-linejoin:miter;stroke-miterlimit:4;stroke-dasharray:none;stroke-dashoffset:7.4;stroke-opacity:1;paint-order:normal" />
  <rect
     transform="matrix(0,-1,-1,0,0,0)"
     y="-17.9"
     x="-8.9000006"
     height="1.800001"
     width="1.800001"
     id="rect26981-7-1-0-3"
     style="fill:#ffffff;fill-opacity:1;stroke:#ffffff;stroke-width:0.199999;stroke-linecap:butt;stroke-linejoin:miter;stroke-miterlimit:4;stroke-dasharray:none;stroke-dashoffset:7.4;stroke-opacity:1;paint-order:normal" />
  <rect
     transform="scale(1,-1)"
     y="-17.9"
     x="17.1"
     height="1.8"
     width="1.8"
     id="rect26981-7-1-3-8-4"
     style="fill:#ffffff;fill-opacity:1;stroke:#ffffff;stroke-width:0.2;stroke-linecap:butt;stroke-linejoin:miter;stroke-miterlimit:4;stroke-dasharray:none;stroke-dashoffset:7.4;stroke-opacity:1;paint-order:normal" />
</svg>
