<?xml version="1.0" encoding="UTF-8"?>
<svg width="24" height="24" version="1.1" viewBox="0 0 24 24" xmlns="http://www.w3.org/2000/svg">
 <path d="m9.07 16.5-0.167 3.33-3.03 1.62-2.86-1.71 0.167-3.33 3.03-1.62z" fill="#fff"/>
 <path d="m12.9 18.4 2.78-0.0324 1.42 2.25-1.36 2.28-2.78 0.0324-1.42-2.25z" fill="none" stroke="#fff" stroke-width="2"/>
 <path d="m6.07 10.1-0.118 2.78-2.51 1.21-2.39-1.58 0.118-2.78 2.51-1.21z" fill="#fff"/>
 <path d="m22.9 12.1-8.47e-4 3.06-2.67 1.44-2.67-1.62 8.48e-4 -3.06 2.67-1.44z" fill="none" stroke="#fff" stroke-width="2"/>
 <path d="m19.4 1 1.88 3.11-1.87 3.12-3.76 0.00792-1.88-3.11 1.87-3.12z" fill="none" stroke="#fff" stroke-width="2"/>
 <path d="m8.58 14.1-0.0767-3.6 3.14-1.76 3.21 1.84 0.0767 3.6-3.14 1.76z" fill="#fff"/>
 <path d="m8.32 1.55 2.69 2.13-0.451 3.5-3.14 1.37-2.69-2.13 0.451-3.5z" fill="#fff"/>
</svg>
