<?xml version="1.0" encoding="UTF-8" standalone="no"?>
<svg
   xmlns:dc="http://purl.org/dc/elements/1.1/"
   xmlns:cc="http://creativecommons.org/ns#"
   xmlns:rdf="http://www.w3.org/1999/02/22-rdf-syntax-ns#"
   xmlns:svg="http://www.w3.org/2000/svg"
   xmlns="http://www.w3.org/2000/svg"
   xmlns:sodipodi="http://sodipodi.sourceforge.net/DTD/sodipodi-0.dtd"
   xmlns:inkscape="http://www.inkscape.org/namespaces/inkscape"
   width="24"
   height="24"
   version="1.1"
   viewBox="0 0 24 24"
   id="svg1596"
   sodipodi:docname="effect.svg"
   inkscape:version="1.0beta2 (654b821, 2020-03-27)">
  <metadata
     id="metadata1600">
    <rdf:RDF>
      <cc:Work
         rdf:about="">
        <dc:format>image/svg+xml</dc:format>
        <dc:type
           rdf:resource="http://purl.org/dc/dcmitype/StillImage" />
        <dc:title />
      </cc:Work>
    </rdf:RDF>
  </metadata>
  <sodipodi:namedview
     inkscape:current-layer="svg1596"
     inkscape:window-maximized="0"
     inkscape:window-y="174"
     inkscape:window-x="1761"
     inkscape:cy="13.264822"
     inkscape:cx="12"
     inkscape:zoom="31.625"
     inkscape:showpageshadow="false"
     inkscape:pagecheckerboard="true"
     showgrid="false"
     id="namedview1598"
     inkscape:window-height="1150"
     inkscape:window-width="1663"
     inkscape:pageshadow="2"
     inkscape:pageopacity="0"
     guidetolerance="10"
     gridtolerance="10"
     objecttolerance="10"
     borderopacity="1"
     bordercolor="#666666"
     pagecolor="#ffffff"
     inkscape:document-rotation="0" />
  <defs
     id="defs1590">
    <style
       id="style1588">.cls-1{fill:#fff;}</style>
    <style
       id="style45095">.cls-1{fill:none;stroke:#000;stroke-linecap:square;stroke-miterlimit:10;stroke-width:16px;}</style>
    <style
       id="style45131">.cls-1{fill:none;stroke:#000;stroke-linecap:square;stroke-miterlimit:10;stroke-width:16px;}</style>
  </defs>
  <g
     transform="matrix(0.78342106,0,0,0.6183578,3.5325225,-170.51968)"
     id="g8646"
     style="stroke-width:1.43676" />
  <g
     transform="matrix(0.78342106,0,0,0.6183578,3.5325225,-170.51968)"
     id="g8648"
     style="stroke-width:1.43676" />
  <g
     transform="matrix(0.78342106,0,0,0.6183578,3.5325225,-170.51968)"
     id="g8650"
     style="stroke-width:1.43676" />
  <g
     transform="matrix(0.78342106,0,0,0.6183578,3.5325225,-170.51968)"
     id="g8652"
     style="stroke-width:1.43676" />
  <g
     transform="matrix(0.78342106,0,0,0.6183578,3.5325225,-170.51968)"
     id="g8654"
     style="stroke-width:1.43676" />
  <g
     transform="matrix(0.78342106,0,0,0.6183578,3.5325225,-170.51968)"
     id="g8656"
     style="stroke-width:1.43676" />
  <g
     transform="matrix(0.78342106,0,0,0.6183578,3.5325225,-170.51968)"
     id="g8658"
     style="stroke-width:1.43676" />
  <g
     transform="matrix(0.78342106,0,0,0.6183578,3.5325225,-170.51968)"
     id="g8660"
     style="stroke-width:1.43676" />
  <g
     transform="matrix(0.78342106,0,0,0.6183578,3.5325225,-170.51968)"
     id="g8662"
     style="stroke-width:1.43676" />
  <g
     transform="matrix(0.78342106,0,0,0.6183578,3.5325225,-170.51968)"
     id="g8664"
     style="stroke-width:1.43676" />
  <g
     transform="matrix(0.78342106,0,0,0.6183578,3.5325225,-170.51968)"
     id="g8666"
     style="stroke-width:1.43676" />
  <g
     transform="matrix(0.78342106,0,0,0.6183578,3.5325225,-170.51968)"
     id="g8668"
     style="stroke-width:1.43676" />
  <g
     transform="matrix(0.78342106,0,0,0.6183578,3.5325225,-170.51968)"
     id="g8670"
     style="stroke-width:1.43676" />
  <g
     transform="matrix(0.78342106,0,0,0.6183578,3.5325225,-170.51968)"
     id="g8672"
     style="stroke-width:1.43676" />
  <g
     transform="matrix(0.78342106,0,0,0.6183578,3.5325225,-170.51968)"
     id="g8674"
     style="stroke-width:1.43676" />
  <g
     transform="matrix(0.02405268,0,0,0.01898489,3.5325306,2.4854654)"
     id="g13170"
     style="stroke-width:26.272" />
  <g
     transform="matrix(0.02405268,0,0,0.01898489,3.5325306,2.4854654)"
     id="g13172"
     style="stroke-width:26.272" />
  <g
     transform="matrix(0.02405268,0,0,0.01898489,3.5325306,2.4854654)"
     id="g13174"
     style="stroke-width:26.272" />
  <g
     transform="matrix(0.02405268,0,0,0.01898489,3.5325306,2.4854654)"
     id="g13176"
     style="stroke-width:26.272" />
  <g
     transform="matrix(0.02405268,0,0,0.01898489,3.5325306,2.4854654)"
     id="g13178"
     style="stroke-width:26.272" />
  <g
     transform="matrix(0.02405268,0,0,0.01898489,3.5325306,2.4854654)"
     id="g13180"
     style="stroke-width:26.272" />
  <g
     transform="matrix(0.02405268,0,0,0.01898489,3.5325306,2.4854654)"
     id="g13182"
     style="stroke-width:26.272" />
  <g
     transform="matrix(0.02405268,0,0,0.01898489,3.5325306,2.4854654)"
     id="g13184"
     style="stroke-width:26.272" />
  <g
     transform="matrix(0.02405268,0,0,0.01898489,3.5325306,2.4854654)"
     id="g13186"
     style="stroke-width:26.272" />
  <g
     transform="matrix(0.02405268,0,0,0.01898489,3.5325306,2.4854654)"
     id="g13188"
     style="stroke-width:26.272" />
  <g
     transform="matrix(0.02405268,0,0,0.01898489,3.5325306,2.4854654)"
     id="g13190"
     style="stroke-width:26.272" />
  <g
     transform="matrix(0.02405268,0,0,0.01898489,3.5325306,2.4854654)"
     id="g13192"
     style="stroke-width:26.272" />
  <g
     transform="matrix(0.02405268,0,0,0.01898489,3.5325306,2.4854654)"
     id="g13194"
     style="stroke-width:26.272" />
  <g
     transform="matrix(0.02405268,0,0,0.01898489,3.5325306,2.4854654)"
     id="g13196"
     style="stroke-width:26.272" />
  <g
     transform="matrix(0.02405268,0,0,0.01898489,3.5325306,2.4854654)"
     id="g13198"
     style="stroke-width:26.272" />
  <path
     id="path3897"
     style="stroke-width:2.2;stroke-miterlimit:4;stroke-dasharray:none;paint-order:normal"
     stroke-width="2.5"
     stroke-linejoin="round"
     stroke-dashoffset="7.4"
     stroke="#ffffff"
     fill="none"
     d="M 22.810814,12.000002 A 10.810811,10.810809 0 0 1 12.000002,22.810811 10.810811,10.810809 0 0 1 1.1891899,12.000002 10.810811,10.810809 0 0 1 12.000002,1.18919 10.810811,10.810809 0 0 1 22.810814,12.000002"
     inkscape:connector-curvature="0" />
  <path
     transform="rotate(90)"
     d="m 20,-11.999999 a 8,8 0 0 1 -4,6.9282032 8,8 0 0 1 -8.0000002,-10e-8 A 8,8 0 0 1 4,-11.999999 Z"
     sodipodi:arc-type="chord"
     sodipodi:open="true"
     sodipodi:end="3.1415927"
     sodipodi:start="0"
     sodipodi:ry="8"
     sodipodi:rx="8"
     sodipodi:cy="-11.999999"
     sodipodi:cx="12"
     sodipodi:type="arc"
     id="path1530"
     style="fill:#fefefe;stroke-width:2.5;stroke-linejoin:bevel;stroke-dashoffset:12.8;paint-order:stroke markers fill" />
</svg>
