<?xml version="1.0" encoding="UTF-8"?>
<svg width="24" height="24" version="1.1" viewBox="0 0 24 24" xmlns="http://www.w3.org/2000/svg">
 <g fill="#fff">
  <path d="m7 5.75c-0.687 0-1.25 0.562-1.25 1.25 0 0.687 0.562 1.25 1.25 1.25 0.688 0 1.25-0.562 1.25-1.25 0-0.687-0.563-1.25-1.25-1.25z"/>
  <path d="m6.58 10.3c-0.917 0-1.67 0.75-1.67 1.67s0.75 1.67 1.67 1.67 1.67-0.75 1.67-1.67c0-0.917-0.75-1.67-1.67-1.67z"/>
  <path d="m12 8.25c0.917 0 1.67-0.75 1.67-1.67 0-0.917-0.75-1.67-1.67-1.67-0.917 0-1.67 0.75-1.67 1.67 0 0.917 0.75 1.67 1.67 1.67z"/>
  <path d="m7 15.8c-0.687 0-1.25 0.563-1.25 1.25s0.563 1.25 1.25 1.25 1.25-0.562 1.25-1.25c0-0.688-0.563-1.25-1.25-1.25z"/>
  <path d="m17.4 10.3c-0.917 0-1.67 0.75-1.67 1.67 0 0.917 0.75 1.67 1.67 1.67 0.917 0 1.67-0.75 1.67-1.67 0-0.917-0.75-1.67-1.67-1.67z"/>
  <path d="m17 15.8c-0.687 0-1.25 0.563-1.25 1.25s0.563 1.25 1.25 1.25c0.687 5.8e-5 1.25-0.562 1.25-1.25 0-0.688-0.563-1.25-1.25-1.25z"/>
  <path d="m17 5.75c-0.687 0-1.25 0.562-1.25 1.25 0 0.687 0.562 1.25 1.25 1.25 0.687 0 1.25-0.562 1.25-1.25 0-0.687-0.563-1.25-1.25-1.25z"/>
  <path d="m12 9.92c-1.15 0-2.08 0.931-2.08 2.08s0.931 2.08 2.08 2.08 2.08-0.931 2.08-2.08-0.931-2.08-2.08-2.08z"/>
  <path d="m12 15.8c-0.917 0-1.67 0.75-1.67 1.67 0 0.917 0.75 1.67 1.67 1.67s1.67-0.75 1.67-1.67c0-0.917-0.75-1.67-1.67-1.67z"/>
  <path d="m12 2c-0.458 0-0.833 0.375-0.833 0.833 0 0.458 0.375 0.833 0.833 0.833 0.458 0 0.833-0.375 0.833-0.833-7.8e-5 -0.458-0.375-0.833-0.833-0.833z"/>
  <path d="m12 20.3c-0.458 0-0.833 0.375-0.833 0.833 0 0.458 0.375 0.833 0.833 0.833 0.458 0 0.833-0.375 0.833-0.833-7.8e-5 -0.458-0.375-0.833-0.833-0.833z"/>
  <path d="m22 12c0-0.458-0.375-0.833-0.833-0.833-0.458 0-0.833 0.375-0.833 0.833 0 0.458 0.375 0.833 0.833 0.833 0.458-7.7e-5 0.833-0.375 0.833-0.833z"/>
  <path d="m3.67 12c0-0.458-0.375-0.833-0.833-0.833-0.458 0-0.833 0.375-0.833 0.833 0 0.458 0.375 0.833 0.833 0.833 0.458-7.8e-5 0.833-0.375 0.833-0.833z"/>
 </g>
 <path d="m22.7 11.9a10.8 10.8 0 0 1-10.8 10.8 10.8 10.8 0 0 1-10.8-10.8 10.8 10.8 0 0 1 10.8-10.8 10.8 10.8 0 0 1 10.8 10.8" fill="none" stroke="#fff" stroke-dashoffset="7.4" stroke-linejoin="round" stroke-width="2.2" style="paint-order:normal"/>
</svg>
