<?xml version="1.0" encoding="UTF-8" standalone="no"?>
<svg
   xmlns:dc="http://purl.org/dc/elements/1.1/"
   xmlns:cc="http://creativecommons.org/ns#"
   xmlns:rdf="http://www.w3.org/1999/02/22-rdf-syntax-ns#"
   xmlns:svg="http://www.w3.org/2000/svg"
   xmlns="http://www.w3.org/2000/svg"
   xmlns:sodipodi="http://sodipodi.sourceforge.net/DTD/sodipodi-0.dtd"
   xmlns:inkscape="http://www.inkscape.org/namespaces/inkscape"
   width="24"
   height="24"
   viewBox="0 0 6.3499999 6.3500002"
   version="1.1"
   id="svg8"
   inkscape:version="1.0beta2 (654b821, 2020-03-27)"
   sodipodi:docname="liquify-alternative.svg">
  <defs
     id="defs2" />
  <sodipodi:namedview
     id="base"
     pagecolor="#ffffff"
     bordercolor="#666666"
     borderopacity="1.0"
     inkscape:pageopacity="0.0"
     inkscape:pageshadow="2"
     inkscape:zoom="16"
     inkscape:cx="15.460013"
     inkscape:cy="11.507071"
     inkscape:document-units="mm"
     inkscape:current-layer="layer1"
     showgrid="false"
     units="px"
     inkscape:pagecheckerboard="true"
     inkscape:window-width="1718"
     inkscape:window-height="1161"
     inkscape:window-x="2148"
     inkscape:window-y="161"
     inkscape:window-maximized="0"
     inkscape:document-rotation="0" />
  <metadata
     id="metadata5">
    <rdf:RDF>
      <cc:Work
         rdf:about="">
        <dc:format>image/svg+xml</dc:format>
        <dc:type
           rdf:resource="http://purl.org/dc/dcmitype/StillImage" />
        <dc:title></dc:title>
      </cc:Work>
    </rdf:RDF>
  </metadata>
  <g
     inkscape:label="Layer 1"
     inkscape:groupmode="layer"
     id="layer1"
     transform="translate(0,-290.64998)">
    <path
       d="m 5.5348586,296.73515 c 0.299039,-0.37949 0.530969,-0.8258 0.668382,-1.30919 0.03011,-0.12174 0.07043,-0.24225 0.0853,-0.36833 0.01844,-0.12509 0.0456,-0.25018 0.04781,-0.37775 0.0054,-0.1272 0.02065,-0.25515 0.01,-0.38284 l -0.0084,-0.19241 -0.0023,-0.0481 -0.0011,-0.0242 c 0.0016,0.009 -0.0027,-0.026 -0.003,-0.0263 l -0.0016,-0.011 -0.01254,-0.0881 -0.02532,-0.17679 c -0.0144,-0.0655 -0.0316,-0.1339 -0.04795,-0.20072 -0.02913,-0.13898 -0.08051,-0.25675 -0.123893,-0.38333 -0.10349,-0.24374 -0.227013,-0.48276 -0.390237,-0.69439 -0.07559,-0.11059 -0.167526,-0.20766 -0.257127,-0.30709 -0.04314,-0.0514 -0.09636,-0.0925 -0.144419,-0.1391 -0.05039,-0.0439 -0.09624,-0.0936 -0.151301,-0.13191 l -0.160397,-0.12125 c -0.05236,-0.0421 -0.112586,-0.0725 -0.168755,-0.10922 -0.111971,-0.0746 -0.234266,-0.13055 -0.355209,-0.18931 -0.05949,-0.0316 -0.12463,-0.05 -0.186945,-0.0752 l -0.09464,-0.0352 -0.0472,-0.0176 -0.04867,-0.0131 c -0.130039,-0.0347 -0.259462,-0.0733 -0.393434,-0.0898 -0.06662,-0.009 -0.132865,-0.0246 -0.199974,-0.0283 l -0.201694,-0.012 c -0.06723,-0.006 -0.134463,-0.003 -0.201695,-1.2e-4 l -0.100786,0.004 -0.05039,0.002 -0.0252,0.001 -0.01266,4.9e-4 c -0.01217,10e-4 0.0093,-0.002 -0.03036,0.003 l -0.177358,0.0245 -0.04425,0.006 -0.05347,0.012 -0.1084058,0.0259 -0.1081604,0.0274 c -0.0338,0.0107 -0.06588,0.0228 -0.098819,0.0342 -0.064773,0.025 -0.1324965,0.0433 -0.1946888,0.0748 -0.2571267,0.10748 -0.490409,0.26655 -0.6984949,0.45028 -0.41838403,0.36783 -0.70685273,0.87589 -0.82619793,1.41778 -0.023844,0.13638 -0.05027,0.27312 -0.053589,0.41123 -0.00356,0.0689 -0.010079,0.13786 -0.00418,0.20655 l 0.00504,0.1029 0.00283,0.0514 0.00147,0.0257 7.382e-4,0.0129 c 0.0016,0.014 -0.00246,-0.0133 0.00356,0.0347 l 0.025565,0.17035 c 0.00111,0.0119 0.00725,0.0346 0.011185,0.0527 l 0.013643,0.0569 0.029007,0.11344 c 0.020772,0.0734 0.046952,0.13538 0.070919,0.2032 0.024459,0.0664 0.058628,0.12856 0.088741,0.19228 0.26327223,0.49863 0.70943393,0.88097 1.21791063,1.05528 0.2533166,0.0893 0.5195387,0.12993 0.78023,0.12448 0.06502,-0.004 0.129792,-0.009 0.194074,-0.014 l 0.01204,-10e-4 c -1.23e-4,3.7e-4 0.04671,-0.006 0.03134,-0.004 l 0.01942,-0.003 0.03859,-0.007 0.07719,-0.0141 c 0.07006,-0.0177 0.145894,-0.0374 0.213002,-0.0598 0.06207,-0.0252 0.125122,-0.047 0.184487,-0.0766 0.481929,-0.22898 0.827427,-0.66414 0.964349,-1.13785 0.06883,-0.23716 0.08641,-0.48363 0.05838,-0.7167 l -0.002,-0.0218 c -0.0015,-0.0115 0.0018,0.0103 -0.0034,-0.0286 l -0.0017,-0.009 -0.0066,-0.0346 -0.01327,-0.0691 c -0.01623,-0.0621 -0.03393,-0.13451 -0.05605,-0.19092 -0.02298,-0.0559 -0.04326,-0.11232 -0.07264,-0.16427 l -0.04179,-0.0785 -0.04818,-0.0739 c -0.259094,-0.39449 -0.691367,-0.61405 -1.100655,-0.64095 -0.05125,-0.003 -0.102507,-0.002 -0.1529,-0.002 -0.05039,0.003 -0.100171,0.009 -0.149335,0.0138 -2.46e-4,-1.3e-4 -0.03196,0.004 -0.02188,0.003 l -0.0074,0.001 -0.01463,0.003 -0.02913,0.006 c -0.0193,0.004 -0.03663,0.007 -0.0676,0.0162 l -0.08186,0.0243 c -0.02729,0.008 -0.04806,0.019 -0.07203,0.0284 -0.093411,0.0378 -0.1779729,0.0909 -0.2557747,0.14828 -0.074975,0.0614 -0.1449103,0.12657 -0.2007113,0.20121 -0.2345114,0.29134 -0.289329,0.67046 -0.2207455,0.96255 0.080383,0.33188 0.3107153,0.54363 0.5457184,0.63636 0.1177471,0.0467 0.2374611,0.0652 0.3473421,0.0596 l 0.0063,-0.2606 c -0.07657,-0.01 -0.154989,-0.0332 -0.227505,-0.0751 -0.072148,-0.042 -0.1395028,-0.10067 -0.1892812,-0.17505 -0.023722,-0.0378 -0.047197,-0.0767 -0.061332,-0.12051 -0.00946,-0.0207 -0.013028,-0.044 -0.019912,-0.0658 -0.00307,-0.011 -0.00283,-0.0195 -0.00492,-0.029 -0.00147,-0.0113 -0.00418,-0.0139 -0.00541,-0.033 -0.011308,-0.10662 0,-0.20642 0.033308,-0.30659 0.03294,-0.0988 0.089478,-0.19266 0.1671569,-0.26791 0.076818,-0.0756 0.1715813,-0.13501 0.2765463,-0.16625 0.01266,-0.003 0.02741,-0.01 0.03798,-0.0109 0.01082,-0.002 0.02139,-0.004 0.03183,-0.006 0.0068,-0.003 0.02852,-0.005 0.04843,-0.007 l 0.02962,-0.003 0.01487,-0.002 0.0075,-7.4e-4 c 0.01487,-0.002 -0.0118,10e-4 -0.0072,10e-4 0.03024,2.5e-4 0.06059,6.1e-4 0.0912,8.7e-4 0.03024,0.004 0.06072,0.006 0.09071,0.0108 0.120329,0.0209 0.237216,0.0691 0.339599,0.14121 0.05199,0.0351 0.09796,0.0788 0.142453,0.12373 0.04081,0.0486 0.08063,0.0984 0.110249,0.15521 l 0.02311,0.0418 0.01831,0.0444 c 0.0145,0.0285 0.02089,0.0606 0.03147,0.0908 0.0088,0.0306 0.01008,0.0496 0.01807,0.0775 l 0.0087,0.0698 0.0043,0.035 0.0011,0.009 c -0.0044,-0.0331 -0.0012,-0.005 -0.0022,-0.011 v 0.0134 c 0.0071,0.1422 -0.01426,0.28577 -0.06391,0.42078 -0.09562,0.2715 -0.312559,0.50408 -0.583451,0.61888 -0.03343,0.0152 -0.06957,0.0241 -0.103859,0.0376 -0.03171,0.008 -0.05728,0.0129 -0.08788,0.0223 l -0.07768,0.0108 -0.03896,0.005 -0.01942,0.003 c -0.02188,0.003 0.01856,-0.002 0.0118,-0.002 l -0.0076,1.3e-4 c -0.04044,5e-4 -0.08087,0.002 -0.121312,0.004 -0.161744,-0.002 -0.3237389,-0.032 -0.4770071,-0.091 -0.3051844,-0.11852 -0.5793956,-0.34837 -0.7361052,-0.65261 -0.017207,-0.039 -0.040806,-0.0751 -0.055309,-0.11567 -0.013643,-0.0393 -0.033431,-0.0821 -0.043879,-0.11827 l -0.014626,-0.0523 -0.00811,-0.026 c -0.00258,-0.01 -0.00602,-0.0143 -0.00799,-0.031 l -0.028269,-0.16984 c 0.00565,0.0409 0.00135,0.006 0.00246,0.0131 l -4.922e-4,-0.009 -9.842e-4,-0.0174 -0.00221,-0.0348 -0.00479,-0.0697 c -0.00578,-0.0466 -0.00111,-0.0932 -7.382e-4,-0.1401 -0.00258,-0.094 0.014749,-0.1867 0.025934,-0.28043 0.071781,-0.36883 0.2475418,-0.73232 0.5309712,-1.00371 0.1399939,-0.13513 0.2980556,-0.25725 0.4773806,-0.34093 0.04265,-0.0257 0.090707,-0.0387 0.1358151,-0.0593 l 0.06858,-0.028 0.0644,-0.0188 0.06428,-0.0202 c 0.01106,-0.003 0.02053,-0.007 0.03306,-0.0104 l 0.220008,-0.0403 c -0.03245,0.004 -0.0034,6.2e-4 -0.0081,10e-4 l 0.0098,-7.5e-4 0.01942,-10e-4 0.03896,-0.003 0.07792,-0.006 c 0.05199,-0.005 0.104105,-0.0105 0.156218,-0.007 l 0.156833,0.004 c 0.05236,4.9e-4 0.103735,0.012 0.155849,0.0171 0.104965,0.008 0.20612,0.0363 0.308872,0.0591 l 0.03847,0.009 0.03724,0.0128 0.07473,0.0254 c 0.04916,0.0185 0.101523,0.0295 0.148597,0.0537 0.785393,0.31973 1.384822,1.06904 1.509084,1.92348 l 0.01524,0.0879 0.002,0.0109 c 0.0012,0.007 -0.0026,-0.0208 -7.41e-4,-0.004 l 0.0014,0.0203 0.0028,0.0407 0.0118,0.16278 c 0.01352,0.1086 0.002,0.21695 0.0012,0.32531 0.0026,0.10885 -0.01967,0.2151 -0.03073,0.32259 -0.0079,0.1081 -0.04007,0.21137 -0.06146,0.31675 -0.102384,0.41718 -0.287731,0.80957 -0.535517,1.14864 z"
       fill="#ffffff"
       stroke-width="0.264583"
       id="path3828"
       inkscape:connector-curvature="0" />
  </g>
</svg>
