<?xml version="1.0" encoding="UTF-8" standalone="no"?>
<svg
   xmlns:dc="http://purl.org/dc/elements/1.1/"
   xmlns:cc="http://creativecommons.org/ns#"
   xmlns:rdf="http://www.w3.org/1999/02/22-rdf-syntax-ns#"
   xmlns:svg="http://www.w3.org/2000/svg"
   xmlns="http://www.w3.org/2000/svg"
   xmlns:sodipodi="http://sodipodi.sourceforge.net/DTD/sodipodi-0.dtd"
   xmlns:inkscape="http://www.inkscape.org/namespaces/inkscape"
   inkscape:version="1.0beta2 (654b821, 2020-03-27)"
   sodipodi:docname="more.svg"
   id="svg888"
   viewBox="0 0 24 24"
   version="1.1"
   height="24"
   width="24">
  <metadata
     id="metadata892">
    <rdf:RDF>
      <cc:Work
         rdf:about="">
        <dc:format>image/svg+xml</dc:format>
        <dc:type
           rdf:resource="http://purl.org/dc/dcmitype/StillImage" />
        <dc:title />
      </cc:Work>
    </rdf:RDF>
  </metadata>
  <sodipodi:namedview
     inkscape:current-layer="svg888"
     inkscape:window-maximized="0"
     inkscape:window-y="0"
     inkscape:window-x="0"
     inkscape:cy="8.5577686"
     inkscape:cx="2.7816522"
     inkscape:zoom="11.2"
     inkscape:showpageshadow="false"
     inkscape:pagecheckerboard="true"
     showgrid="false"
     id="namedview890"
     inkscape:window-height="1161"
     inkscape:window-width="1715"
     inkscape:pageshadow="2"
     inkscape:pageopacity="0"
     guidetolerance="10"
     gridtolerance="10"
     objecttolerance="10"
     borderopacity="1"
     inkscape:document-rotation="0"
     bordercolor="#666666"
     pagecolor="#ffffff" />
  <defs
     id="defs878">
    <style
       id="style876"
       type="text/css">.fil0 {fill:black}</style>
    <style
       type="text/css"
       id="style3921">
   
    .fil0 {fill:black}
   
  </style>
  </defs>
  <g
     id="g42618"
     transform="matrix(0.34762911,0,0,0.3476211,-7.3502045,-7.2584635)"
     style="opacity:1;fill:#ffffff;fill-opacity:1;stroke-width:0.76112;stop-opacity:1">
    <g
       id="g42600"
       style="fill:#ffffff;fill-opacity:1;stroke-width:0.76112" />
  </g>
  <path
     inkscape:connector-curvature="0"
     d="M 6,12 A 1.9999995,1.9999996 0 0 1 4,13.999999 1.9999995,1.9999996 0 0 1 2,12 1.9999995,1.9999996 0 0 1 4,10 1.9999995,1.9999996 0 0 1 6,12 Z"
     style="fill:#ffffff;stroke-width:0.66146;stroke-linecap:round;stroke-linejoin:round;stroke-dashoffset:25.7212;paint-order:markers stroke fill;stop-color:#000000"
     id="path2488-9" />
  <path
     id="path2488-9-0"
     style="fill:#ffffff;stroke-width:0.66146;stroke-linecap:round;stroke-linejoin:round;stroke-dashoffset:25.7212;paint-order:markers stroke fill;stop-color:#000000"
     d="m 14,12 a 1.9999998,2 0 0 1 -2,2 1.9999998,2 0 0 1 -2,-2 1.9999998,2 0 0 1 2,-2 1.9999998,2 0 0 1 2,2 z"
     inkscape:connector-curvature="0" />
  <path
     inkscape:connector-curvature="0"
     d="m 22,12 a 1.9999997,2 0 0 1 -2,2 1.9999997,2 0 0 1 -2,-2 1.9999997,2 0 0 1 2,-2 1.9999997,2 0 0 1 2,2 z"
     style="fill:#ffffff;stroke-width:0.66146;stroke-linecap:round;stroke-linejoin:round;stroke-dashoffset:25.7212;paint-order:markers stroke fill;stop-color:#000000"
     id="path2488-9-0-5" />
</svg>
