<?xml version="1.0" encoding="UTF-8" standalone="no"?>
<svg
   xmlns:dc="http://purl.org/dc/elements/1.1/"
   xmlns:cc="http://creativecommons.org/ns#"
   xmlns:rdf="http://www.w3.org/1999/02/22-rdf-syntax-ns#"
   xmlns:svg="http://www.w3.org/2000/svg"
   xmlns="http://www.w3.org/2000/svg"
   xmlns:sodipodi="http://sodipodi.sourceforge.net/DTD/sodipodi-0.dtd"
   xmlns:inkscape="http://www.inkscape.org/namespaces/inkscape"
   width="32"
   height="32"
   version="1.1"
   viewBox="0 0 8.4667 8.4667"
   id="svg890"
   sodipodi:docname="reset.svg"
   inkscape:version="1.0beta2 (654b821, 2020-03-27)">
  <metadata
     id="metadata896">
    <rdf:RDF>
      <cc:Work
         rdf:about="">
        <dc:format>image/svg+xml</dc:format>
        <dc:type
           rdf:resource="http://purl.org/dc/dcmitype/StillImage" />
        <dc:title />
      </cc:Work>
    </rdf:RDF>
  </metadata>
  <defs
     id="defs894" />
  <sodipodi:namedview
     inkscape:document-rotation="0"
     pagecolor="#ffffff"
     bordercolor="#666666"
     borderopacity="1"
     objecttolerance="10"
     gridtolerance="10"
     guidetolerance="10"
     inkscape:pageopacity="0"
     inkscape:pageshadow="2"
     inkscape:window-width="1685"
     inkscape:window-height="1161"
     id="namedview892"
     showgrid="false"
     inkscape:pagecheckerboard="true"
     inkscape:showpageshadow="false"
     inkscape:zoom="16.617009"
     inkscape:cx="7.75605"
     inkscape:cy="7.9126986"
     inkscape:window-x="0"
     inkscape:window-y="0"
     inkscape:window-maximized="0"
     inkscape:current-layer="svg890" />
  <g
     transform="matrix(.029463 0 0 .029463 -.0026517 -60.321)"
     stroke-width="8.9802"
     id="g886">
    <path
       d="m256 43.5c-6.6 0-12 5.4-12 12v251l-45.5-41.1c-4.9-4.4-12.5-4.1-16.9 0.9-4.4 4.9-4.1 12.5 0.9 16.9l65.5 59.2c2.3 2.1 5.2 3.1 8 3.1 2.9 0 5.8-1 8-3.1l65.5-59.2c4.9-4.4 5.3-12 0.9-16.9s-12-5.3-16.9-0.9l-45.5 41.1v-251c0-6.6-5.4-12-12-12z"
       id="path878" />
    <path
       d="m113.3 468h285.5c27.5 0 50.3-21.9 50.3-49.4v-236.7c0-27.5-22.8-49.9-50.3-49.9h-63.7c-6.6 0-12 5.4-12 12s5.4 12 12 12h63.7c14.3 0 26.3 11.6 26.3 25.9v236.7c0 14.3-12 25.4-26.3 25.4h-285.5c-14.3 0-26.3-11.1-26.3-25.4v-236.7c0-14.3 12-25.9 26.3-25.9h63.7c6.6 0 12-5.4 12-12s-5.4-12-12-12h-63.7c-27.5 0-50.3 22.4-50.3 49.9v236.7c0 27.5 22.8 49.4 50.3 49.4z"
       id="path880" />
    <text
       y="527"
       fill="#000000"
       font-family="'Helvetica Neue', Helvetica, Arial-Unicode, Arial, Sans-serif"
       font-size="5px"
       font-weight="bold"
       id="text882">Created by prakruti</text>
    <text
       y="532"
       fill="#000000"
       font-family="'Helvetica Neue', Helvetica, Arial-Unicode, Arial, Sans-serif"
       font-size="5px"
       font-weight="bold"
       id="text884">from the Noun Project</text>
  </g>
  <path
     inkscape:connector-curvature="0"
     id="path888"
     d="M 0.79375312,0.79375312 V 3.4856111 H 3.4856111 L 2.4633126,2.4633126 C 3.6415142,1.4481875 5.4813995,1.4805076 6.6138443,2.5556116 L 6.9631784,2.8874205 7.6729457,2.2343177 7.3236116,1.9030931 C 5.8123904,0.46843278 3.3543346,0.42622739 1.7839222,1.7839223 Z"
     style="fill:#ffffff;fill-opacity:1;stroke-width:0.264584" />
  <path
     style="fill:#ffffff;fill-opacity:1;stroke-width:0.264584"
     d="M 7.6729465,7.4543768 V 4.7625187 H 4.9810884 L 6.0033871,5.7848173 C 4.8251853,6.7999424 2.9852999,6.7676223 1.8528552,5.6925184 L 1.5035204,5.3607094 0.79375322,6.0138122 1.1430881,6.3450369 c 1.511221,1.4346604 3.9692769,1.4768658 5.5396893,0.1191708 z"
     id="path888-6"
     inkscape:connector-curvature="0" />
</svg>
