<svg width="16" height="16" version="1.1" viewBox="0 0 16 16" xmlns="http://www.w3.org/2000/svg">
 <g fill="#fff">
  <path d="M13.242 11.949l2.644 2.648a.456.456 0 01-.018.63l-.638.638a.456.456 0 01-.647 0l-2.644-2.649c-.1-.1-.192-.21-.273-.328L10.5 11.5l1-1 1.35 1.13c.142.09.274.198.392.319z"/>
  <path d="M6.4 4a.4.4 0 00-.4.4V6H4.4a.4.4 0 00-.4.4v1.2c0 .22.18.4.4.4H6v1.6c0 .22.18.4.4.4h1.2a.4.4 0 00.4-.4V8h1.6a.4.4 0 00.4-.4V6.4a.4.4 0 00-.4-.4H8V4.4a.4.4 0 00-.4-.4H6.4z" clip-rule="evenodd" fill-rule="evenodd"/>
  <path d="M7 12A5 5 0 107 2a5 5 0 000 10zm0 2A7 7 0 107 0a7 7 0 000 14z" clip-rule="evenodd" fill-rule="evenodd"/>
 </g>
</svg>
